<?xml version="1.0" standalone="no"?>
<!DOCTYPE svg PUBLIC "-//W3C//DTD SVG 20010904//EN"
 "http://www.w3.org/TR/2001/REC-SVG-20010904/DTD/svg10.dtd">
<svg version="1.0" xmlns="http://www.w3.org/2000/svg"
 width="1080.000000pt" height="1080.000000pt" viewBox="0 0 1080.000000 1080.000000"
 preserveAspectRatio="xMidYMid meet">
<metadata>
Created by potrace 1.11, written by Peter Selinger 2001-2013
</metadata>
<g transform="translate(0.000000,1080.000000) scale(0.100000,-0.100000)"
fill="#000000" stroke="none">
<path d="M3348 9175 c-2 -2 -70 -5 -153 -9 -82 -3 -172 -8 -200 -11 -56 -4
-176 -16 -215 -20 -39 -3 -164 -18 -170 -20 -3 0 -32 -5 -65 -9 -33 -4 -89
-14 -125 -21 -36 -7 -81 -16 -101 -19 -178 -27 -544 -155 -729 -253 -244 -130
-543 -368 -682 -543 -145 -183 -247 -425 -275 -653 -12 -96 -9 -314 6 -392 43
-223 177 -516 345 -755 184 -261 377 -468 730 -781 21 -18 44 -38 50 -44 6 -5
52 -44 101 -85 50 -41 92 -77 95 -80 6 -6 140 -114 365 -295 148 -119 221
-178 265 -215 10 -8 42 -35 71 -60 140 -119 376 -352 488 -485 97 -114 212
-281 259 -378 144 -294 134 -565 -31 -787 -163 -219 -400 -387 -979 -689 -75
-39 -176 -94 -223 -121 -48 -28 -88 -50 -90 -50 -3 0 -32 -19 -66 -43 -99 -67
-145 -141 -152 -241 -13 -184 83 -356 244 -435 127 -62 214 -46 435 81 82 47
250 140 373 208 123 67 241 132 262 146 21 13 41 24 44 24 3 0 11 5 18 10 7 6
53 36 102 68 238 152 412 298 581 487 103 116 154 192 215 319 131 276 175
626 114 916 -88 417 -334 830 -730 1225 -246 245 -444 414 -854 730 -359 277
-453 357 -661 566 -376 377 -552 639 -595 886 -35 198 16 339 185 517 152 160
389 297 690 399 104 35 325 90 408 101 23 3 61 8 85 12 23 3 56 7 74 9 133 19
807 25 1173 12 191 -7 585 -8 665 -2 28 2 94 6 147 9 130 8 197 33 263 100
156 156 164 415 18 577 -20 22 -53 49 -74 59 -50 26 -149 40 -234 34 -91 -6
-587 -7 -1077 -2 -214 3 -389 4 -390 3z"/>
<path d="M6135 9158 c-125 -34 -250 -208 -257 -358 -7 -162 72 -291 224 -363
l67 -32 -4 -115 c-3 -63 -7 -196 -10 -295 -3 -99 -7 -227 -10 -285 -2 -58 -7
-188 -10 -290 -4 -102 -8 -219 -10 -260 -2 -41 -6 -127 -10 -190 -3 -63 -8
-144 -11 -180 -3 -36 -7 -94 -9 -130 -3 -36 -7 -87 -10 -115 -2 -27 -7 -79
-10 -115 -4 -36 -8 -76 -10 -90 -2 -14 -7 -59 -10 -100 -4 -41 -8 -82 -10 -90
-2 -8 -8 -67 -15 -130 -7 -63 -16 -118 -20 -123 -3 -4 -39 -16 -79 -28 -170
-46 -267 -137 -296 -276 -30 -143 8 -271 112 -378 65 -68 156 -106 232 -99
l33 3 -6 -142 c-10 -212 -15 -318 -21 -467 -11 -280 -19 -410 -31 -530 -7 -74
-34 -288 -40 -325 -3 -16 -7 -41 -9 -55 -6 -42 -16 -102 -25 -160 -5 -30 -12
-68 -14 -85 -18 -113 -46 -284 -50 -304 -3 -12 -8 -42 -10 -65 -3 -22 -7 -50
-10 -61 -2 -11 -7 -45 -10 -75 -4 -30 -9 -71 -12 -90 -8 -63 -14 -181 -16
-304 -1 -98 -5 -126 -19 -147 -80 -116 -87 -302 -15 -409 30 -45 91 -106 125
-126 14 -9 37 -31 51 -49 31 -41 91 -82 145 -97 67 -19 182 -14 250 12 63 24
113 28 235 17 309 -27 1017 -28 1325 -2 117 11 172 16 195 20 14 2 45 7 70 10
81 10 274 45 340 61 36 9 76 18 90 21 81 14 351 98 525 163 306 114 452 199
620 365 169 166 238 329 239 560 0 155 -30 302 -91 450 -46 111 -324 679 -384
785 -270 479 -538 816 -879 1109 -89 77 -272 204 -311 216 -20 7 -21 8 -5 17
10 6 68 27 129 48 173 59 237 86 432 183 500 248 873 631 1102 1132 102 224
134 361 127 545 -3 52 -7 103 -10 112 -3 10 -7 30 -10 45 -21 124 -109 317
-207 452 -112 157 -336 363 -516 476 -155 97 -518 262 -727 331 -158 52 -474
140 -564 158 -14 3 -70 14 -125 26 -55 12 -109 24 -120 26 -23 5 -412 71 -465
79 -37 5 -86 12 -160 21 -25 3 -56 7 -70 9 -32 6 -168 23 -245 30 -33 4 -71 8
-85 10 -14 2 -50 7 -80 10 -100 11 -134 15 -225 26 -137 16 -266 19 -310 7z
m975 -874 c47 -7 101 -16 120 -18 45 -6 101 -16 120 -21 8 -2 35 -7 60 -10 25
-3 61 -10 80 -15 19 -5 51 -11 70 -14 112 -17 473 -102 604 -142 231 -71 506
-172 591 -217 304 -160 446 -284 496 -434 12 -36 21 -75 21 -87 0 -37 -12
-115 -22 -142 -6 -14 -10 -34 -10 -44 0 -48 -128 -274 -208 -368 -120 -142
-196 -208 -345 -301 -175 -110 -363 -194 -627 -279 -87 -28 -311 -90 -349 -97
-26 -4 -95 -18 -106 -21 -5 -1 -28 -5 -50 -9 -22 -3 -47 -8 -55 -10 -8 -3 -33
-7 -55 -10 -22 -3 -51 -8 -65 -11 -99 -18 -224 -37 -340 -49 -25 -3 -54 -7
-65 -10 -11 -2 -46 -7 -77 -10 l-57 -7 4 54 c2 29 7 116 10 193 3 77 7 181 10
230 5 115 14 297 20 450 3 66 7 170 10 230 3 61 7 180 11 265 3 85 7 193 9
240 2 47 7 173 11 280 3 107 7 224 9 260 2 36 4 84 4 108 l1 42 43 -6 c23 -3
80 -12 127 -20z m-60 -3213 c400 -71 848 -288 1129 -546 103 -94 127 -120 227
-245 129 -160 204 -267 288 -408 73 -124 311 -593 346 -682 12 -30 28 -68 35
-85 25 -58 65 -185 65 -210 0 -13 -7 -43 -16 -65 -13 -33 -28 -47 -80 -76
-123 -69 -380 -162 -619 -224 -82 -21 -167 -41 -189 -45 -21 -3 -41 -7 -45 -9
-3 -2 -26 -7 -51 -10 -25 -3 -56 -8 -69 -11 -12 -2 -42 -6 -65 -9 -200 -24
-201 -24 -376 -32 -275 -13 -879 -6 -965 11 -11 2 -46 4 -79 4 l-59 1 7 132
c3 72 8 148 11 167 3 20 7 56 10 81 3 25 9 70 15 100 5 30 12 71 15 90 3 19
24 130 45 245 58 311 56 299 70 401 6 44 12 89 14 100 2 10 7 57 11 104 4 47
8 99 10 115 4 29 12 144 20 275 2 36 6 139 10 230 3 91 8 199 10 240 2 41 7
145 10 230 4 85 9 158 11 161 3 5 157 -12 254 -30z"/>
</g>
</svg>
